# xmcd
#
# Track frame offsets:
#	150
#	15197
#	30624
#	45875
#	63152
#	82551
#	99920
#	117749
#	139041
#	156513
#	169606
#	192871
#
# Disc length: 2798 seconds
#
# Revision: 2
# Processed by: cddbd v1.5.2PL0 Copyright (c) Steve Scherf et al.
# Submitted via: audiograbber 1.83.01
#
DISCID=830aec0c
DTITLE=Karise Eden - Things I've Done
DYEAR=2014
DGENRE=Blues
TTITLE0=Black Heart
TTITLE1=Taking It All
TTITLE2=Dynamite
TTITLE3=Loneliness
TTITLE4=Things I've Done
TTITLE5=Don't Ask Me
TTITLE6=She Don't
TTITLE7=134 Days
TTITLE8=We Got The Night
TTITLE9=House On Fire
TTITLE10=Broken Hearted
TTITLE11=Something In The Water
EXTD=
EXTT0=
EXTT1=
EXTT2=
EXTT3=
EXTT4=
EXTT5=
EXTT6=
EXTT7=
EXTT8=
EXTT9=
EXTT10=
EXTT11=
PLAYORDER=
